<?xml version="1.0" encoding="UTF-8" standalone="no"?>
<svg
   xmlns:dc="http://purl.org/dc/elements/1.1/"
   xmlns:cc="http://creativecommons.org/ns#"
   xmlns:rdf="http://www.w3.org/1999/02/22-rdf-syntax-ns#"
   xmlns:svg="http://www.w3.org/2000/svg"
   xmlns="http://www.w3.org/2000/svg"
   xmlns:sodipodi="http://sodipodi.sourceforge.net/DTD/sodipodi-0.dtd"
   xmlns:inkscape="http://www.inkscape.org/namespaces/inkscape"
   id="Artwork"
   viewBox="0 0 150 150"
   version="1.1"
   sodipodi:docname="accessibility.svg"
   inkscape:version="1.0.2 (e86c870879, 2021-01-15)">
  <metadata
     id="metadata15">
    <rdf:RDF>
      <cc:Work
         rdf:about="">
        <dc:format>image/svg+xml</dc:format>
        <dc:type
           rdf:resource="http://purl.org/dc/dcmitype/StillImage" />
      </cc:Work>
    </rdf:RDF>
  </metadata>
  <sodipodi:namedview
     pagecolor="#ffffff"
     bordercolor="#666666"
     borderopacity="1"
     objecttolerance="10"
     gridtolerance="10"
     guidetolerance="10"
     inkscape:pageopacity="0"
     inkscape:pageshadow="2"
     inkscape:window-width="1422"
     inkscape:window-height="1012"
     id="namedview13"
     showgrid="false"
     inkscape:zoom="4.9"
     inkscape:cx="75"
     inkscape:cy="75"
     inkscape:window-x="0"
     inkscape:window-y="0"
     inkscape:window-maximized="0"
     inkscape:current-layer="Artwork" />
  <defs
     id="defs4">
    <style
       id="style2">.cls-1{fill:#036;}.cls-2{fill:#fff;}</style>
  </defs>
  <circle
     class="cls-1"
     cx="75"
     cy="75"
     r="75"
     id="circle6"
     style="fill:#ffffff" />
  <circle
     class="cls-2"
     cx="75"
     cy="38.51"
     r="10.13"
     id="circle8"
     style="fill:#003366;fill-opacity:1" />
  <path
     class="cls-2"
     d="M85.57,67.31l22.21-6.12a5.36,5.36,0,0,0,3.77-6.61h0a5.44,5.44,0,0,0-6.68-3.73L80.51,57.64a18,18,0,0,1-11,0L45.13,50.85a5.44,5.44,0,0,0-6.68,3.73h0a5.36,5.36,0,0,0,3.77,6.61l22.21,6.12a4.05,4.05,0,0,1,3,3.89v7.31a23.62,23.62,0,0,1-2.36,10.31L53.14,113.48a5.33,5.33,0,0,0,2.55,7.15h0a5.44,5.44,0,0,0,7.23-2.53L75,93.2l12.12,24.9a5.44,5.44,0,0,0,7.23,2.53h0a5.33,5.33,0,0,0,2.55-7.15L85,88.82a23.62,23.62,0,0,1-2.36-10.31V71.2A4.05,4.05,0,0,1,85.57,67.31Z"
     id="path10"
     style="fill:#003366;fill-opacity:1" />
</svg>
